<svg width="119" height="33" viewBox="0 0 119 33" fill="none" xmlns="http://www.w3.org/2000/svg">
<path d="M91.017 16.9091L89.142 23.875H88.0994L89.9744 16.9091H91.017ZM91.6001 23V18.6364H92.7536V19.4062H92.8047C92.8956 19.1506 93.0471 18.9489 93.2592 18.8011C93.4714 18.6534 93.7251 18.5795 94.0206 18.5795C94.3198 18.5795 94.5746 18.6544 94.7848 18.804C94.995 18.9517 95.1352 19.1525 95.2053 19.4062H95.2507C95.3397 19.1562 95.5007 18.9564 95.7337 18.8068C95.9685 18.6553 96.246 18.5795 96.5661 18.5795C96.9732 18.5795 97.3037 18.7093 97.5575 18.9688C97.8132 19.2263 97.9411 19.5919 97.9411 20.0653V23H96.7337V20.304C96.7337 20.0616 96.6693 19.8797 96.5405 19.7585C96.4117 19.6373 96.2507 19.5767 96.0575 19.5767C95.8378 19.5767 95.6664 19.6468 95.5433 19.7869C95.4202 19.9252 95.3587 20.108 95.3587 20.3352V23H94.1854V20.2784C94.1854 20.0644 94.1238 19.8939 94.0007 19.767C93.8795 19.6402 93.7195 19.5767 93.5206 19.5767C93.3861 19.5767 93.2649 19.6108 93.157 19.679C93.0509 19.7453 92.9666 19.839 92.9041 19.9602C92.8416 20.0795 92.8104 20.2197 92.8104 20.3807V23H91.6001ZM100.886 23.0852C100.437 23.0852 100.05 22.9943 99.7266 22.8125C99.4046 22.6288 99.1565 22.3693 98.9822 22.0341C98.808 21.697 98.7209 21.2983 98.7209 20.8381C98.7209 20.3892 98.808 19.9953 98.9822 19.6562C99.1565 19.3172 99.4018 19.053 99.718 18.8636C100.036 18.6742 100.409 18.5795 100.837 18.5795C101.125 18.5795 101.393 18.6259 101.641 18.7188C101.891 18.8097 102.109 18.947 102.295 19.1307C102.482 19.3144 102.628 19.5455 102.732 19.8239C102.836 20.1004 102.888 20.4242 102.888 20.7955V21.1278H99.2038V20.3778H101.749C101.749 20.2036 101.711 20.0492 101.636 19.9148C101.56 19.7803 101.455 19.6752 101.32 19.5994C101.188 19.5218 101.033 19.483 100.857 19.483C100.674 19.483 100.511 19.5256 100.369 19.6108C100.228 19.6941 100.119 19.8068 100.039 19.9489C99.9595 20.089 99.9188 20.2453 99.9169 20.4176V21.1307C99.9169 21.3466 99.9567 21.5331 100.036 21.6903C100.118 21.8475 100.232 21.9688 100.38 22.054C100.528 22.1392 100.703 22.1818 100.906 22.1818C101.04 22.1818 101.163 22.1629 101.275 22.125C101.387 22.0871 101.482 22.0303 101.562 21.9545C101.641 21.8788 101.702 21.786 101.744 21.6761L102.863 21.75C102.806 22.0189 102.69 22.2538 102.513 22.4545C102.339 22.6534 102.114 22.8087 101.837 22.9205C101.563 23.0303 101.246 23.0852 100.886 23.0852ZM101.38 18.1136L100.809 17.4205L100.238 18.1136H99.2067V18.0739L100.357 16.8239H101.258L102.411 18.0739V18.1136H101.38ZM107.309 19.8807L106.201 19.9489C106.182 19.8542 106.141 19.7689 106.079 19.6932C106.016 19.6155 105.934 19.554 105.832 19.5085C105.731 19.4612 105.611 19.4375 105.471 19.4375C105.283 19.4375 105.125 19.4773 104.996 19.5568C104.868 19.6345 104.803 19.7386 104.803 19.8693C104.803 19.9735 104.845 20.0616 104.928 20.1335C105.012 20.2055 105.155 20.2633 105.357 20.3068L106.147 20.4659C106.571 20.553 106.888 20.6932 107.096 20.8864C107.304 21.0795 107.408 21.3333 107.408 21.6477C107.408 21.9337 107.324 22.1847 107.156 22.4006C106.989 22.6165 106.76 22.785 106.468 22.9062C106.178 23.0256 105.844 23.0852 105.465 23.0852C104.888 23.0852 104.427 22.965 104.085 22.7244C103.744 22.482 103.544 22.1525 103.485 21.7358L104.675 21.6733C104.711 21.8494 104.799 21.9839 104.937 22.0767C105.075 22.1676 105.252 22.2131 105.468 22.2131C105.68 22.2131 105.851 22.1723 105.979 22.0909C106.11 22.0076 106.176 21.9006 106.178 21.7699C106.176 21.66 106.13 21.5701 106.039 21.5C105.948 21.428 105.808 21.3731 105.619 21.3352L104.863 21.1847C104.437 21.0994 104.12 20.9517 103.911 20.7415C103.705 20.5312 103.602 20.2633 103.602 19.9375C103.602 19.6572 103.677 19.4157 103.829 19.2131C103.982 19.0104 104.197 18.8542 104.474 18.7443C104.752 18.6345 105.078 18.5795 105.451 18.5795C106.002 18.5795 106.436 18.696 106.752 18.929C107.07 19.1619 107.256 19.4792 107.309 19.8807Z" fill="#FF0000"/>
<path d="M40.9773 5.54545L44.4972 11.4943H44.6335L48.1705 5.54545H52.3381L47.0114 14.2727L52.4574 23H48.2131L44.6335 17.0426H44.4972L40.9176 23H36.6903L42.1534 14.2727L36.7926 5.54545H40.9773ZM58.1335 5.54545L61.6534 11.4943H61.7898L65.3267 5.54545H69.4943L64.1676 14.2727L69.6136 23H65.3693L61.7898 17.0426H61.6534L58.0739 23H53.8466L59.3097 14.2727L53.9489 5.54545H58.1335ZM75.2898 5.54545L78.8097 11.4943H78.946L82.483 5.54545H86.6506L81.3239 14.2727L86.7699 23H82.5256L78.946 17.0426H78.8097L75.2301 23H71.0028L76.4659 14.2727L71.1051 5.54545H75.2898Z" fill="#FF0000"/>
<path d="M24.5057 9V3.18182H26.8011C27.2405 3.18182 27.6155 3.26042 27.9261 3.41761C28.2386 3.57292 28.4763 3.79356 28.6392 4.07955C28.804 4.36364 28.8864 4.69792 28.8864 5.08239C28.8864 5.46875 28.803 5.80114 28.6364 6.07955C28.4697 6.35606 28.2282 6.56818 27.9119 6.71591C27.5975 6.86364 27.2169 6.9375 26.7699 6.9375H25.233V5.94886H26.571C26.8059 5.94886 27.0009 5.91667 27.1562 5.85227C27.3116 5.78788 27.4271 5.69129 27.5028 5.5625C27.5805 5.43371 27.6193 5.27367 27.6193 5.08239C27.6193 4.8892 27.5805 4.72633 27.5028 4.59375C27.4271 4.46117 27.3106 4.3608 27.1534 4.29261C26.9981 4.22254 26.8021 4.1875 26.5653 4.1875H25.7358V9H24.5057ZM27.6477 6.35227L29.0938 9H27.7358L26.321 6.35227H27.6477ZM31.6761 9.72727V2.45455H32.142V9.72727H31.6761ZM32.9119 4.85511C32.8892 4.62595 32.7917 4.44792 32.6193 4.32102C32.447 4.19413 32.2131 4.13068 31.9176 4.13068C31.7169 4.13068 31.5473 4.15909 31.4091 4.21591C31.2708 4.27083 31.1648 4.34754 31.0909 4.44602C31.0189 4.54451 30.983 4.65625 30.983 4.78125C30.9792 4.88542 31.0009 4.97633 31.0483 5.05398C31.0975 5.13163 31.1648 5.19886 31.25 5.25568C31.3352 5.31061 31.4337 5.3589 31.5455 5.40057C31.6572 5.44034 31.7765 5.47443 31.9034 5.50284L32.4261 5.62784C32.6799 5.68466 32.9129 5.76042 33.125 5.85511C33.3371 5.94981 33.5208 6.06629 33.6761 6.20455C33.8314 6.3428 33.9517 6.50568 34.0369 6.69318C34.1241 6.88068 34.1686 7.09564 34.1705 7.33807C34.1686 7.69413 34.0777 8.00284 33.8977 8.2642C33.7197 8.52367 33.4621 8.72538 33.125 8.86932C32.7898 9.01136 32.3854 9.08239 31.9119 9.08239C31.4422 9.08239 31.0331 9.01042 30.6847 8.86648C30.3381 8.72254 30.0672 8.50947 29.8722 8.22727C29.679 7.94318 29.5777 7.59186 29.5682 7.1733H30.7585C30.7718 7.36837 30.8277 7.53125 30.9261 7.66193C31.0265 7.79072 31.16 7.88826 31.3267 7.95455C31.4953 8.01894 31.6856 8.05114 31.8977 8.05114C32.1061 8.05114 32.2869 8.02083 32.4403 7.96023C32.5956 7.89962 32.7159 7.81534 32.8011 7.70739C32.8864 7.59943 32.929 7.47538 32.929 7.33523C32.929 7.20455 32.8902 7.0947 32.8125 7.00568C32.7367 6.91667 32.625 6.84091 32.4773 6.77841C32.3314 6.71591 32.1525 6.65909 31.9403 6.60795L31.3068 6.44886C30.8163 6.32955 30.429 6.14299 30.1449 5.8892C29.8608 5.63542 29.7197 5.29356 29.7216 4.86364C29.7197 4.51136 29.8134 4.2036 30.0028 3.94034C30.1941 3.67708 30.4564 3.47159 30.7898 3.32386C31.1231 3.17614 31.5019 3.10227 31.9261 3.10227C32.358 3.10227 32.7348 3.17614 33.0568 3.32386C33.3807 3.47159 33.6326 3.67708 33.8125 3.94034C33.9924 4.2036 34.0852 4.50852 34.0909 4.85511H32.9119Z" fill="#FF0000"/>
<path d="M1.85795 12H0.579545V7.63636H1.93466C2.35085 7.63636 2.70668 7.72301 3.00213 7.89631C3.29901 8.0696 3.52628 8.31818 3.68395 8.64205C3.84162 8.96591 3.92045 9.3544 3.92045 9.80753C3.92045 10.2649 3.83949 10.6577 3.67756 10.9858C3.51705 11.3125 3.28267 11.5632 2.97443 11.7379C2.66761 11.9126 2.29545 12 1.85795 12ZM0.977983 11.642H1.83452C2.20952 11.642 2.52344 11.5682 2.77628 11.4205C3.02912 11.2727 3.21875 11.0618 3.34517 10.7876C3.47159 10.5135 3.5348 10.1868 3.5348 9.80753C3.53338 9.43111 3.47088 9.10724 3.3473 8.83594C3.22514 8.56463 3.04332 8.35653 2.80185 8.21165C2.56179 8.06676 2.26491 7.99432 1.91122 7.99432H0.977983V11.642ZM4.88619 12V7.63636H7.41744V7.99432H5.28462V9.63707H7.2832V9.99503H5.28462V11.642H7.46005V12H4.88619ZM10.2044 7.63636L11.4125 9.53054H11.4402L12.6483 7.63636H13.1191L11.715 9.81818L13.1191 12H12.6483L11.4402 10.1271H11.4125L10.2044 12H9.73349L11.1589 9.81818L9.73349 7.63636H10.2044ZM13.9426 7.63636L15.1507 9.53054H15.1784L16.3865 7.63636H16.8574L15.4533 9.81818L16.8574 12H16.3865L15.1784 10.1271H15.1507L13.9426 12H13.4718L14.8972 9.81818L13.4718 7.63636H13.9426ZM17.6809 7.63636L18.889 9.53054H18.9167L20.1248 7.63636H20.5957L19.1916 9.81818L20.5957 12H20.1248L18.9167 10.1271H18.889L17.6809 12H17.21L18.6355 9.81818L17.21 7.63636H17.6809Z" fill="white"/>
<path d="M21 10H1" stroke="#FFE4E4"/>
</svg>
